<svg xmlns="http://www.w3.org/2000/svg" viewBox="0 0 98.2 47.67"><defs><style>.cls-1{fill:#00b9d8;}.cls-2{fill:#fff;}.cls-3{fill:#e9e200;}</style></defs><title>logo-team-web</title><g id="Capa_2" data-name="Capa 2"><g id="Capa_6" data-name="Capa 6"><rect class="cls-1" x="1.16" y="3.6" width="95.89" height="16.82"/><path class="cls-2" d="M16.78,12.18H14.43V1.88H11.19V0H20V1.88H16.78Z"/><path class="cls-2" d="M40.23,12.18H32.32V0h7.83V1.81H34.52v3.3h4.53V6.88H34.52v3.41h5.71Z"/><path class="cls-2" d="M62.64,12.18H60.29l-1-2.9H54.64l-1,2.9H51.81L55.85,0h2.71ZM58.73,7.52,57,2.09,55.18,7.52Z"/><path class="cls-2" d="M87,12.18H84.77V1.52L81.4,12.18H80.25L76.86,1.52V12.18H75.07V0H78.5l2.55,7.84L83.56,0H87Z"/><path class="cls-3" d="M26.29,47.67H22.62L16,24.58,9.53,47.67H5.86L2.42,17.49H1.56a1.81,1.81,0,0,1-1.2-.32A1.08,1.08,0,0,1,0,16.32a1.06,1.06,0,0,1,.36-.84,1.76,1.76,0,0,1,1.2-.32h8.67a1.8,1.8,0,0,1,1.22.32,1.06,1.06,0,0,1,.36.84,1.08,1.08,0,0,1-.36.85,1.86,1.86,0,0,1-1.22.32H4.78L7.86,45l6.31-22.65h3.59L24.23,45l3-27.51H21.79a1.81,1.81,0,0,1-1.2-.32,1.08,1.08,0,0,1-.36-.85,1.06,1.06,0,0,1,.36-.84,1.76,1.76,0,0,1,1.2-.32H30.4a1.8,1.8,0,0,1,1.22.32,1.06,1.06,0,0,1,.36.84,1.08,1.08,0,0,1-.36.85,1.86,1.86,0,0,1-1.22.32h-.86Z"/><path class="cls-3" d="M42.6,32V45.33H60.55V38.44a1.75,1.75,0,0,1,.32-1.19,1.17,1.17,0,0,1,1.69,0,1.75,1.75,0,0,1,.32,1.19v9.23H37.12a1.69,1.69,0,0,1-1.19-.34,1.08,1.08,0,0,1-.36-.83,1.1,1.1,0,0,1,.36-.85,1.8,1.8,0,0,1,1.19-.32h3.14V17.49H37.12a1.8,1.8,0,0,1-1.19-.32,1.08,1.08,0,0,1-.36-.85,1.06,1.06,0,0,1,.36-.84,1.75,1.75,0,0,1,1.19-.32H61.66v8a1.8,1.8,0,0,1-.32,1.19,1.08,1.08,0,0,1-.85.36,1.06,1.06,0,0,1-.84-.36,1.75,1.75,0,0,1-.32-1.19v-5.7H42.6V29.63H51V27a1.69,1.69,0,0,1,.34-1.19,1.1,1.1,0,0,1,.86-.36,1.08,1.08,0,0,1,.83.36A1.75,1.75,0,0,1,53.32,27v7.62A1.75,1.75,0,0,1,53,35.8a1.08,1.08,0,0,1-.83.36,1.1,1.1,0,0,1-.86-.36A1.69,1.69,0,0,1,51,34.61V32Z"/><path class="cls-3" d="M74.39,45.33V17.49H71.25a1.81,1.81,0,0,1-1.2-.32,1.08,1.08,0,0,1-.36-.85,1.06,1.06,0,0,1,.36-.84,1.76,1.76,0,0,1,1.2-.32H85.92A10.07,10.07,0,0,1,93,17.67a7.81,7.81,0,0,1,2.74,5.91q0,4.28-4.59,6.91A11.54,11.54,0,0,1,96.51,34a7.57,7.57,0,0,1,1.69,4.78A8.38,8.38,0,0,1,97.09,43a9.31,9.31,0,0,1-3.4,3.3,9.69,9.69,0,0,1-5,1.36H71.25a1.7,1.7,0,0,1-1.2-.34,1.08,1.08,0,0,1-.36-.83,1.1,1.1,0,0,1,.36-.85,1.81,1.81,0,0,1,1.2-.32Zm2.33-15.72H85a11.79,11.79,0,0,0,4.84-1,6.07,6.07,0,0,0,2.64-2.25,5.48,5.48,0,0,0,.94-3,5.39,5.39,0,0,0-2-4A7.74,7.74,0,0,0,86,17.49H76.72Zm0,15.72H88.53a7.45,7.45,0,0,0,3.92-1A7.06,7.06,0,0,0,95,41.86a6,6,0,0,0,.86-3.06,5.68,5.68,0,0,0-1.24-3.44,7.58,7.58,0,0,0-3.43-2.53A16.94,16.94,0,0,0,85.11,32H76.72Z"/></g></g></svg>