<svg xmlns="http://www.w3.org/2000/svg" viewBox="0 0 260.4 355.27"><defs><style>.cls-1{fill:#e6e6e6;}.cls-2{fill:#b3b3b3;}.cls-3{fill:none;stroke:gray;stroke-miterlimit:10;}</style></defs><title>Recurso 3</title><g id="Capa_2" data-name="Capa 2"><g id="Capa_1-2" data-name="Capa 1"><rect class="cls-1" x="0.2" width="260" height="355.27"/><rect class="cls-2" x="33.15" y="184.58" width="195.08" height="2.98" rx="1" ry="1"/><rect class="cls-2" x="33.15" y="197.48" width="195.08" height="2.98" rx="1" ry="1"/><rect class="cls-2" x="33.15" y="210.38" width="195.08" height="2.98" rx="1" ry="1"/><rect class="cls-2" x="33.15" y="223.28" width="195.08" height="2.98" rx="1" ry="1"/><rect class="cls-2" x="33.15" y="236.18" width="195.08" height="2.98" rx="1" ry="1"/><rect class="cls-2" x="32.95" y="261.98" width="98.24" height="2.98" rx="1" ry="1"/><rect class="cls-2" x="19.07" y="18.87" width="150.84" height="6.95" rx="3.47" ry="3.47"/><rect class="cls-2" x="0.2" y="44.66" width="260" height="112.14"/><line class="cls-3" x1="0.2" y1="156.79" x2="260.2" y2="44.66"/><line class="cls-3" x1="0.2" y1="44.66" x2="260.2" y2="156.79"/><rect class="cls-2" x="32.95" y="297.71" width="195.5" height="28.78"/></g></g></svg>