<svg xmlns="http://www.w3.org/2000/svg" viewBox="0 0 395.41 252.55"><defs><style>.cls-1{fill:#e6e6e6;}.cls-2{fill:#b3b3b3;}.cls-3{fill:none;stroke:gray;stroke-miterlimit:10;}</style></defs><title>Recurso 1</title><g id="Capa_2" data-name="Capa 2"><g id="Capa_1-2" data-name="Capa 1"><rect class="cls-1" x="181.92" y="0.8" width="213.49" height="251.76"/><rect class="cls-2" x="208.81" y="64.24" width="159.69" height="3.02" rx="1" ry="1"/><rect class="cls-2" x="208.81" y="77.33" width="159.69" height="3.02" rx="1" ry="1"/><rect class="cls-2" x="208.81" y="90.42" width="159.69" height="3.02" rx="1" ry="1"/><rect class="cls-2" x="208.81" y="103.51" width="159.69" height="3.02" rx="1" ry="1"/><rect class="cls-2" x="208.81" y="116.6" width="159.69" height="3.02" rx="1" ry="1"/><rect class="cls-2" x="208.81" y="131.71" width="159.69" height="3.02" rx="1" ry="1"/><rect class="cls-2" x="208.86" y="162.93" width="99.7" height="3.02" rx="1" ry="1"/><rect class="cls-2" x="207.85" y="24.96" width="150.05" height="7.05" rx="3.5" ry="3.5"/><rect class="cls-2" x="0.41" y="0.29" width="181.26" height="251.76"/><line class="cls-3" x1="0.41" y1="252.05" x2="181.67" y2="0.29"/><line class="cls-3" x1="0.41" y1="0.29" x2="181.67" y2="252.05"/><rect class="cls-2" x="208.86" y="199.18" width="160.12" height="29.2"/></g></g></svg>