<svg xmlns="http://www.w3.org/2000/svg" viewBox="0 0 450.54 91.86"><defs><style>.cls-1{fill:#fff;}</style></defs><title>logo-app</title><g id="Capa_2" data-name="Capa 2"><g id="Capa_6" data-name="Capa 6"><path class="cls-1" d="M18.5,37.47,0,22.91V21.29L18.44,6.44v4.87L5.39,22,18.5,32.6Z"/><path class="cls-1" d="M60.2,23H57.59V38.28H53.53l-.63-4.87a12.2,12.2,0,0,1-4.62,3.91,15.13,15.13,0,0,1-7,1.54,15.77,15.77,0,0,1-12.56-5.57A20.26,20.26,0,0,1,23.9,19.6a20.3,20.3,0,0,1,5-13.86Q34,0,42.57,0a23.41,23.41,0,0,1,8,1.28,15.79,15.79,0,0,1,5.54,3.19l1,7.36-4.35.47-1.1-5.11a17.55,17.55,0,0,0-3.83-1.74,16.82,16.82,0,0,0-5.28-.75,12.12,12.12,0,0,0-9.48,4q-3.63,4-3.63,10.76T33,30.22a11.64,11.64,0,0,0,9.17,3.94q4.81,0,7.48-2.58a8.23,8.23,0,0,0,2.67-6.12V23H43.79V18.44H60.2Z"/><path class="cls-1" d="M92.51,38.28H64.15V33.7h4.58V5.16H64.15V.58h27.9l1.16,10.79-4.59.4L87.46,5.16H74V16.94H91.18v4.52H74V33.7H88l1.16-6.61,4.52.4Z"/><path class="cls-1" d="M137.29,5.16h-4.53V38.28h-3.19l-21.4-28h-.23V33.7h5.74v4.58h-15V33.7H103V5.16H98.08V.58h8.7l20.76,27.14h.23V5.16h-5.62V.58h15.14Z"/><path class="cls-1" d="M169.88,38.28H141.52V33.7h4.58V5.16h-4.58V.58h27.9l1.16,10.79-4.59.4-1.16-6.61H151.38V16.94h17.17v4.52H151.38V33.7h14l1.16-6.61,4.52.4Z"/><path class="cls-1" d="M208.91,38.28h-8.17l-8-15.37H185.6V33.7h4.75v4.58H175.74V33.7h4.58V5.16h-4.58V.58h16.53q7,0,10.26,3a10.22,10.22,0,0,1,3.25,7.91,10.59,10.59,0,0,1-2.06,6.5A10.7,10.7,0,0,1,198,21.87l6.27,11.83h4.69ZM200.16,11.6q0-3.42-2-4.93t-6.7-1.51H185.6V18.62h5.91c3.17,0,5.41-.62,6.7-1.86A6.79,6.79,0,0,0,200.16,11.6Z"/><path class="cls-1" d="M248,38.28H234.14V33.7h4.47l-2.32-6.27h-15.2L218.6,33.7h4.93v4.58H209.78V33.7h3.48L225.15,5.16h-5.8V.58h11.37L244.29,33.7H248ZM234.78,23.49,229,8.18h-.35l-6,15.31Z"/><path class="cls-1" d="M286.46,19.37q0,8.41-5,13.66t-14,5.25H250.15V33.76h4.58V5.1h-4.58V.58h17q9.35,0,14.33,5.28T286.46,19.37Zm-5.63.06q0-6.67-3.54-10.5C274.94,6.38,271.51,5.1,267,5.1h-7V33.76h7c4.48,0,7.91-1.25,10.26-3.75S280.83,24,280.83,19.43Z"/><path class="cls-1" d="M328.51,19.43a19.69,19.69,0,0,1-5.19,13.72q-5.19,5.72-13.89,5.71t-13.81-5.74a20.06,20.06,0,0,1-5-13.69A19.59,19.59,0,0,1,295.8,5.65Q301,0,309.54,0t13.81,5.68A19.75,19.75,0,0,1,328.51,19.43Zm-5.69.12a15.9,15.9,0,0,0-3.56-10.71,12.17,12.17,0,0,0-9.72-4.14q-6.37,0-9.83,4.26a16,16,0,0,0-3.45,10.41,16.51,16.51,0,0,0,3.39,10.41q3.41,4.38,10,4.38,6.38,0,9.77-4.17A16,16,0,0,0,322.82,19.55Z"/><path class="cls-1" d="M365.4,38.28h-8.18l-8-15.37h-7.19V33.7h4.76v4.58H332.22V33.7h4.58V5.16h-4.58V.58h16.53q7,0,10.27,3a10.25,10.25,0,0,1,3.24,7.91,10.65,10.65,0,0,1-2.05,6.5,10.76,10.76,0,0,1-5.78,3.89L360.7,33.7h4.7ZM356.64,11.6q0-3.42-2-4.93t-6.7-1.51h-5.86V18.62H348q4.75,0,6.69-1.86A6.79,6.79,0,0,0,356.64,11.6Z"/><path class="cls-1" d="M417.19,19.37q0,8.41-5.05,13.66t-14,5.25H380.88V33.76h4.58V5.1h-4.58V.58h17q9.33,0,14.32,5.28T417.19,19.37Zm-5.63.06q0-6.67-3.53-10.5T397.76,5.1h-7V33.76h7q6.72,0,10.27-3.75T411.56,19.43Z"/><path class="cls-1" d="M449.38,38.28H421V33.7h4.58V5.16H421V.58h27.9l1.15,10.79-4.58.4-1.16-6.61H430.88V16.94H448v4.52H430.88V33.7h14L446,27.09l4.53.4Z"/><path class="cls-1" d="M30.57,65.3q0,6.09-3.74,9.22a14,14,0,0,1-9.31,3.13H10.61v9h6.27v4.58H.75V86.7H5.34V58.16H.75V53.58H17.17q7,0,10.21,3.39A11.73,11.73,0,0,1,30.57,65.3Zm-5.63.11a7.15,7.15,0,0,0-2-5.31c-1.32-1.29-3.44-1.94-6.38-1.94h-6v15H16.7Q24.94,73.13,24.94,65.41Z"/><path class="cls-1" d="M67.28,91.28H59.1L51.16,75.91H44V86.7h4.76v4.58H34.1V86.7h4.59V58.16H34.1V53.58H50.63q7,0,10.27,3a10.25,10.25,0,0,1,3.25,7.91,10.47,10.47,0,0,1-7.83,10.39L62.58,86.7h4.7ZM58.52,64.6q0-3.42-2-4.93c-1.33-1-3.57-1.51-6.7-1.51H44V71.62h5.92q4.75,0,6.7-1.86A6.82,6.82,0,0,0,58.52,64.6Z"/><path class="cls-1" d="M107.47,72.43a19.69,19.69,0,0,1-5.19,13.72q-5.19,5.71-13.89,5.71t-13.8-5.74a20,20,0,0,1-5-13.69,19.59,19.59,0,0,1,5.22-13.78Q80,53,88.51,53t13.8,5.68A19.75,19.75,0,0,1,107.47,72.43Zm-5.68.12a15.85,15.85,0,0,0-3.57-10.71,12.16,12.16,0,0,0-9.71-4.14q-6.39,0-9.83,4.26a16,16,0,0,0-3.46,10.41,16.51,16.51,0,0,0,3.4,10.41q3.39,4.38,10,4.38c4.26,0,7.51-1.39,9.78-4.17A16,16,0,0,0,101.79,72.55Z"/><path class="cls-1" d="M147.9,76h-2.61V91.28h-4.06l-.64-4.87A12.16,12.16,0,0,1,136,90.32a15.15,15.15,0,0,1-7,1.54,15.75,15.75,0,0,1-12.55-5.57,20.26,20.26,0,0,1-4.79-13.69,20.26,20.26,0,0,1,5-13.86q5-5.75,13.63-5.74a23.45,23.45,0,0,1,8,1.28,15.79,15.79,0,0,1,5.54,3.19l1,7.36-4.35.47-1.1-5.11a17.34,17.34,0,0,0-3.83-1.74,16.79,16.79,0,0,0-5.27-.75,12.15,12.15,0,0,0-9.49,4q-3.63,4-3.62,10.76t3.48,10.73a11.62,11.62,0,0,0,9.16,3.94q4.81,0,7.48-2.58A8.23,8.23,0,0,0,140,78.46V76h-8.52V71.44H147.9Z"/><path class="cls-1" d="M185,91.28h-8.18l-8-15.37H161.7V86.7h4.76v4.58H151.84V86.7h4.58V58.16h-4.58V53.58h16.53q7,0,10.27,3a10.25,10.25,0,0,1,3.25,7.91,10.47,10.47,0,0,1-7.83,10.39l6.26,11.83H185ZM176.26,64.6q0-3.42-2-4.93c-1.33-1-3.57-1.51-6.7-1.51H161.7V71.62h5.92q4.75,0,6.7-1.86A6.82,6.82,0,0,0,176.26,64.6Z"/><path class="cls-1" d="M224.11,91.28H210.25V86.7h4.46l-2.32-6.27H197.2l-2.5,6.27h4.93v4.58H185.89V86.7h3.48l11.89-28.54h-5.8V53.58h11.37L220.4,86.7h3.71ZM210.89,76.49l-5.75-15.31h-.34l-6,15.31Z"/><path class="cls-1" d="M273.18,58.16H268.3V86.7h4.53v4.58H259V86.7H263V65.53h-.24L251,89h-2.61L236.12,65.18h-.24V86.7h4.24v4.58H226.37V86.7h4.52V58.16H226V53.58h9.4L249.75,81.3H250l13.74-27.72h9.46Z"/><path class="cls-1" d="M313.83,91.28H300V86.7h4.47l-2.32-6.27h-15.2l-2.49,6.27h4.93v4.58H275.61V86.7h3.48L291,58.16h-5.8V53.58h11.37L310.12,86.7h3.71ZM300.61,76.49l-5.74-15.31h-.35l-6,15.31Z"/><path class="cls-1" d="M342.6,80.49q0,5.52-3.85,8.44a16.14,16.14,0,0,1-10,2.93,27.47,27.47,0,0,1-7.13-.9,15.07,15.07,0,0,1-5.34-2.41l.87-8,4.24.41-.12,4.69A13,13,0,0,0,324.94,87a20,20,0,0,0,3.51.32,12.34,12.34,0,0,0,6.06-1.37C336.15,85,337,83.37,337,81q0-3.95-2.76-5.19A28.72,28.72,0,0,0,328,73.88a52.35,52.35,0,0,1-5.36-1.45,9.94,9.94,0,0,1-4.41-2.87,8.56,8.56,0,0,1-1.77-5.83q0-5.62,3.77-8.18A15.19,15.19,0,0,1,329,53a23,23,0,0,1,6.56,1,13.93,13.93,0,0,1,5,2.46l.35,7.72-4.23.4-.64-5.28A12.05,12.05,0,0,0,332.63,58a17.11,17.11,0,0,0-3.31-.35A8.87,8.87,0,0,0,324.13,59a4.7,4.7,0,0,0-2,4.12q0,3.2,2.43,4.32A29,29,0,0,0,330,69.3q2.43.53,5.39,1.42a11.82,11.82,0,0,1,5.11,3.1Q342.61,76,342.6,80.49Z"/><path class="cls-1" d="M364,51.38l-12.12,39.9h-5L359,51.38Z"/><path class="cls-1" d="M387,75.91l-18.5,14.56V85.6L381.64,75,368.53,64.31V59.44L387,74.29Z"/></g></g></svg>