<svg xmlns="http://www.w3.org/2000/svg" viewBox="0 0 260.43 355.72"><defs><style>.cls-1{fill:#e6e6e6;}.cls-2{fill:#b3b3b3;}.cls-3{fill:none;stroke:gray;stroke-miterlimit:10;}</style></defs><title>Recurso 2</title><g id="Capa_2" data-name="Capa 2"><g id="Capa_1-2" data-name="Capa 1"><rect class="cls-1" x="0.22" y="0.45" width="260" height="355.27"/><rect class="cls-2" x="26.72" y="185.03" width="206.99" height="2.98" rx="1" ry="1"/><rect class="cls-2" x="26.72" y="197.93" width="206.99" height="2.98" rx="1" ry="1"/><rect class="cls-2" x="26.72" y="210.83" width="206.99" height="2.98" rx="1" ry="1"/><rect class="cls-2" x="26.72" y="223.73" width="206.99" height="2.98" rx="1" ry="1"/><rect class="cls-2" x="26.72" y="236.63" width="206.99" height="2.98" rx="1" ry="1"/><rect class="cls-2" x="26.77" y="262.44" width="98.24" height="2.98" rx="1" ry="1"/><rect class="cls-2" x="25.77" y="148.31" width="150.84" height="6.95" rx="3.47" ry="3.47"/><rect class="cls-2" x="0.22" y="0.45" width="260" height="124.05"/><line class="cls-3" x1="0.22" y1="124.5" x2="260.22" y2="0.45"/><line class="cls-3" x1="0.22" y1="0.45" x2="260.22" y2="124.5"/><rect class="cls-2" x="26.77" y="298.16" width="207.4" height="28.78"/></g></g></svg>