<svg xmlns="http://www.w3.org/2000/svg" viewBox="0 0 131.4 28.3"><path d="M18.9 21.1h8.5v4.3H14.1V2.9h4.8zm11.5-3.2v-15h4.8v14.9c0 2.4 2 3.6 4.2 3.6s4.1-1.2 4.1-3.6V2.9h4.8v15c0 5-4.1 7.8-8.9 7.8s-9-2.7-9-7.8m43.5-15h1.7v22.5h-4.8V13.3l-5.6 7h-.6l-5.7-7v12.1h-4.8V2.9h1.8l9 10.7zm12.5 9.7v12.8h-4.7V2.8h1.5l12.6 12.9V2.9h4.8v22.6h-1.4zM3.2 2.9H8v22.5H3.2zm107.6 14.3c-.5-.9-.8-1.9-.8-3 0-3.5 2.8-6.3 6.3-6.3 1.1 0 2.1.3 3 .8l2.7-4.8c-1.7-.9-3.6-1.5-5.7-1.5-6.5 0-11.8 5.3-11.8 11.8 0 2.1.5 4 1.5 5.7l4.8-2.7zm15.9-8.7l-4.8 2.7c.5.9.8 1.9.8 3 0 3.5-2.8 6.3-6.3 6.3-1.1 0-2.1-.3-3-.8l-2.7 4.8c1.7.9 3.6 1.5 5.7 1.5 6.5 0 11.8-5.3 11.8-11.8-.1-2.1-.6-4-1.5-5.7" fill="#fff" id="Capa_1"/></svg>